<?xml version="1.0" encoding="utf-8"?>
<!-- Generator: Adobe Illustrator 25.2.0, SVG Export Plug-In . SVG Version: 6.00 Build 0)  -->
<svg version="1.1" id="Layer_1"
	xmlns="http://www.w3.org/2000/svg"
	xmlns:xlink="http://www.w3.org/1999/xlink" x="0px" y="0px" viewBox="300 150 1400 1700" style="enable-background:new 0 0 2000 2000;" xml:space="preserve">
	<style type="text/css">
	.st0{display:none;fill:#DFB678;}
	.st1{display:none;fill:#FF6B00;}
	.st2{fill:#CCC;}
	</style>
	<!-- .st2{fill:#404040;} -->
	<rect x="0" y="0" class="st0" width="2000" height="2000"/>
	<g>
		<path class="st2" d="M1486.37,1288.66c50.04-84.34,78.81-182.78,78.81-287.96c0-121.6-38.41-234.22-103.74-326.41
		c5.68,24.65,8.53,51.49,8.53,80.54v24.44c0,50.32-13.19,94.17-39.54,131.55c-26.36,37.38-63.74,64.95-112.14,82.67
		c53.67,11.99,95.25,39.18,124.72,81.59c29.48,42.41,44.21,96.45,44.21,162.1v24.44
		C1487.22,1270.85,1486.92,1279.85,1486.37,1288.66z"/>
		<path class="st2" d="M729.83,970.04c-1.73,29.06-2.93,58.14-4.4,87.21l-3.6,87.24l-2.85,87.27c-0.7,29.1-1.64,58.19-2.08,87.3
		c-1.1,56.71-1.74,113.45-1.1,170.23c0.13,0.08,0.27,0.16,0.4,0.24c4.85-56.63,8.42-113.31,11.53-170.01
		c1.72-29.06,2.94-58.14,4.4-87.21l3.62-87.24l2.87-87.27c0.69-29.1,1.64-58.19,2.08-87.3c1.14-58.21,1.78-116.45,1.04-174.74
		C736.68,853.81,733.01,911.92,729.83,970.04z"/>
		<path class="st2" d="M625.87,605.87c16.18-13.03,33.49-24.06,51.87-33.11c18.38-9.05,37.78-16.16,57.94-21.86
		c20.17-5.78,41.03-9.98,62.58-14.71c-21.57-4.57-43.89-5.16-66.02-2.48c-22.11,2.74-44.08,9.01-64.38,19.07
		c-20.3,10-38.84,23.79-54,40.4c-15.14,16.62-27.05,35.91-34.2,56.78C594.72,633.88,609.6,618.84,625.87,605.87z"/>
		<path class="st2" d="M1020.96,526.59l23.89-0.19c7.96-0.02,15.93-0.15,23.89-0.37v-1.11c-7.96-3.92-15.93-5.96-23.89-7.42
		c-7.97-1.39-15.93-2.04-23.89-2.05c-7.96-0.02-15.93,0.63-23.89,2.02c-7.96,1.46-15.93,3.5-23.89,7.45v1.11
		c7.97,0.22,15.93,0.35,23.89,0.37L1020.96,526.59z"/>
		<path class="st2" d="M1187.46,1077.6H1044.5V913.69h142.95c96.11,0,106.57-66,106.57-105.31l-2-19.94
		c0-36.89-7.72-61.78-27.12-81.66c-19.23-19.7-46.35-29.64-81.33-29.82l-3.04-193.83c0.87,0,1.73-0.03,2.6-0.03
		c17.42,0,34.08,0.87,50.01,2.62c-71.09-32.24-150.02-50.2-233.15-50.2c-93.64,0-181.95,22.81-259.72,63.12
		c37.79-5.3,81.09-5.34,130.73,1.71l28.4,34.52h37.74l27.15-40.73c4.6-6.9,12.35-11.04,20.64-11.04h93.51
		c13.71,0,24.82,11.11,24.82,24.8v144.44c0,13.69-11.11,24.8-24.82,24.8h-86.09c-11.33,0-21.04-7.79-23.81-18.78
		c-4.46-17.62-15.09-41.91-40.03-45.95c-31.55-5.11-67.73,53.34-77.71,130.68H705.77c-4.34-41.67-16.32-68.47-54.46-75.55
		C575.8,653.52,494.9,777.57,494.9,777.57h-11.86c0,0,0.2-2.64,0.81-7.4c-31.49,70.4-49.02,148.42-49.02,230.53
		c0,191.12,94.88,360.07,240.09,462.35l33.4-664.33l0.15-0.44c-0.16-7.05-0.33-13.85-0.55-20.42h140.32
		c-0.14,6.73-0.08,13.54,0.21,20.42h0.03c0,0.06,0.01-9.51,0.02-20.42h1.48l35.14,748.64c0.59,11.83-8.14,21.87-19.62,23.23
		c30.69,7.48,62.36,12.5,94.79,14.75v-208.77h217.41c40.9-0.81,72.68-12.37,95.31-34.77c23.48-23.24,35.23-56.19,35.23-98.85
		c0-46.02-10.42-81.59-31.27-106.75S1226.27,1077.6,1187.46,1077.6z"/>
	</g>
</svg>
