<?xml version="1.0" encoding="UTF-8" standalone="no"?>
<!-- Generator: Adobe Illustrator 25.2.0, SVG Export Plug-In . SVG Version: 6.00 Build 0)  -->

<svg version="1.1" id="Layer_1" x="0px" y="0px" viewBox="0 0 1130.35 1128.96" xml:space="preserve" sodipodi:docname="SVG_1_cropped.svg" width="1130.35" height="1128.96" inkscape:version="1.2.1 (9c6d41e410, 2022-07-14)"
   xmlns:inkscape="http://www.inkscape.org/namespaces/inkscape"
   xmlns:sodipodi="http://sodipodi.sourceforge.net/DTD/sodipodi-0.dtd"
   xmlns="http://www.w3.org/2000/svg"
   xmlns:svg="http://www.w3.org/2000/svg">
   <defs id="defs21" />
   <sodipodi:namedview id="namedview19" pagecolor="#ffffff" bordercolor="#000000" borderopacity="0.25" inkscape:showpageshadow="2" inkscape:pageopacity="0.0" inkscape:pagecheckerboard="0" inkscape:deskcolor="#d1d1d1" showgrid="false" inkscape:zoom="0.4235" inkscape:cx="566.70602" inkscape:cy="566.70602" inkscape:window-width="1920" inkscape:window-height="1027" inkscape:window-x="-8" inkscape:window-y="-8" inkscape:window-maximized="1" inkscape:current-layer="Layer_1" />
   <style type="text/css" id="style2">
	.st0{display:none;fill:#D3080A;}
	.st1{display:none;fill:#383E42;}
	.st2{fill:#404040;}
   </style>
   <rect x="-434.82999" class="st0" width="2000" height="2000" id="rect4" y="-435.51999" />
   <g id="g16" transform="translate(-434.83,-435.52)">
      <path class="st2" d="m 1486.37,1288.66 c 50.04,-84.34 78.81,-182.78 78.81,-287.96 0,-121.6 -38.41,-234.22 -103.74,-326.41 5.68,24.65 8.53,51.49 8.53,80.54 v 24.44 c 0,50.32 -13.19,94.17 -39.54,131.55 -26.36,37.38 -63.74,64.95 -112.14,82.67 53.67,11.99 95.25,39.18 124.72,81.59 29.48,42.41 44.21,96.45 44.21,162.1 v 24.44 c 0,9.23 -0.3,18.23 -0.85,27.04 z" id="path6" />
      <path class="st2" d="m 729.83,970.04 c -1.73,29.06 -2.93,58.14 -4.4,87.21 l -3.6,87.24 -2.85,87.27 c -0.7,29.1 -1.64,58.19 -2.08,87.3 -1.1,56.71 -1.74,113.45 -1.1,170.23 0.13,0.08 0.27,0.16 0.4,0.24 4.85,-56.63 8.42,-113.31 11.53,-170.01 1.72,-29.06 2.94,-58.14 4.4,-87.21 l 3.62,-87.24 2.87,-87.27 c 0.69,-29.1 1.64,-58.19 2.08,-87.3 1.14,-58.21 1.78,-116.45 1.04,-174.74 -5.06,58.05 -8.73,116.16 -11.91,174.28 z" id="path8" />
      <path class="st2" d="m 625.87,605.87 c 16.18,-13.03 33.49,-24.06 51.87,-33.11 18.38,-9.05 37.78,-16.16 57.94,-21.86 20.17,-5.78 41.03,-9.98 62.58,-14.71 -21.57,-4.57 -43.89,-5.16 -66.02,-2.48 -22.11,2.74 -44.08,9.01 -64.38,19.07 -20.3,10 -38.84,23.79 -54,40.4 -15.14,16.62 -27.05,35.91 -34.2,56.78 15.06,-16.08 29.94,-31.12 46.21,-44.09 z" id="path10" />
      <path class="st2" d="m 1020.96,526.59 23.89,-0.19 c 7.96,-0.02 15.93,-0.15 23.89,-0.37 v -1.11 c -7.96,-3.92 -15.93,-5.96 -23.89,-7.42 -7.97,-1.39 -15.93,-2.04 -23.89,-2.05 -7.96,-0.02 -15.93,0.63 -23.89,2.02 -7.96,1.46 -15.93,3.5 -23.89,7.45 v 1.11 c 7.97,0.22 15.93,0.35 23.89,0.37 z" id="path12" />
      <path class="st2" d="M 1187.46,1077.6 H 1044.5 V 913.69 h 142.95 c 96.11,0 106.57,-66 106.57,-105.31 l -2,-19.94 c 0,-36.89 -7.72,-61.78 -27.12,-81.66 -19.23,-19.7 -46.35,-29.64 -81.33,-29.82 l -3.04,-193.83 c 0.87,0 1.73,-0.03 2.6,-0.03 17.42,0 34.08,0.87 50.01,2.62 -71.09,-32.24 -150.02,-50.2 -233.15,-50.2 -93.64,0 -181.95,22.81 -259.72,63.12 37.79,-5.3 81.09,-5.34 130.73,1.71 l 28.4,34.52 h 37.74 l 27.15,-40.73 c 4.6,-6.9 12.35,-11.04 20.64,-11.04 h 93.51 c 13.71,0 24.82,11.11 24.82,24.8 v 144.44 c 0,13.69 -11.11,24.8 -24.82,24.8 h -86.09 c -11.33,0 -21.04,-7.79 -23.81,-18.78 -4.46,-17.62 -15.09,-41.91 -40.03,-45.95 -31.55,-5.11 -67.73,53.34 -77.71,130.68 H 705.77 C 701.43,701.42 689.45,674.62 651.31,667.54 575.8,653.52 494.9,777.57 494.9,777.57 h -11.86 c 0,0 0.2,-2.64 0.81,-7.4 -31.49,70.4 -49.02,148.42 -49.02,230.53 0,191.12 94.88,360.07 240.09,462.35 l 33.4,-664.33 0.15,-0.44 c -0.16,-7.05 -0.33,-13.85 -0.55,-20.42 h 140.32 c -0.14,6.73 -0.08,13.54 0.21,20.42 h 0.03 c 0,0.06 0.01,-9.51 0.02,-20.42 h 1.48 l 35.14,748.64 c 0.59,11.83 -8.14,21.87 -19.62,23.23 30.69,7.48 62.36,12.5 94.79,14.75 v -208.77 h 217.41 c 40.9,-0.81 72.68,-12.37 95.31,-34.77 23.48,-23.24 35.23,-56.19 35.23,-98.85 0,-46.02 -10.42,-81.59 -31.27,-106.75 -20.85,-25.16 -50.7,-37.74 -89.51,-37.74 z" id="path14" />
   </g>
</svg>
